HIERARCHY
ROOT mixamorig:Hips
{
  OFFSET 0.000000 0.000000 0.000000
  CHANNELS 6 Xposition Yposition Zposition Xrotation Yrotation Zrotation
  JOINT mixamorig:Spine
  {
    OFFSET 1.277922 23.685776 -1.473739
    CHANNELS 3 Xrotation Yrotation Zrotation
    JOINT mixamorig:Spine2
    {
      OFFSET 1.277922 23.685776 -1.473739
      CHANNELS 3 Xrotation Yrotation Zrotation
      JOINT mixamorig:Neck
      {
        OFFSET 0.000000 4.227248 0.000000
        CHANNELS 3 Xrotation Yrotation Zrotation
        JOINT mixamorig:Head
        {
          OFFSET 0.000000 3.735021 0.000000
          CHANNELS 3 Xrotation Yrotation Zrotation
          End Site
          {
            OFFSET 0.000000 1.120506 0.000000
          }
        }
      }
      JOINT mixamorig:LeftShoulder
      {
        OFFSET 15.589172 3.940868 -1.613959
        CHANNELS 3 Xrotation Yrotation Zrotation
        JOINT mixamorig:LeftArm
        {
          OFFSET 1.009262 -19.267075 -10.059340
          CHANNELS 3 Xrotation Yrotation Zrotation
          JOINT mixamorig:LeftForeArm
          {
            OFFSET -7.551586 9.126048 -14.273645
            CHANNELS 3 Xrotation Yrotation Zrotation
            JOINT mixamorig:LeftHand
            {
              OFFSET -2.601524 3.809930 -1.584078
              CHANNELS 3 Xrotation Yrotation Zrotation
              End Site
              {
                OFFSET -0.780457 1.142979 -0.475223
              }
            }
          }
        }
      }
      JOINT mixamorig:RightShoulder
      {
        OFFSET -15.589172 3.940868 1.613959
        CHANNELS 3 Xrotation Yrotation Zrotation
        JOINT mixamorig:RightArm
        {
          OFFSET 0.369772 -24.896812 -13.866074
          CHANNELS 3 Xrotation Yrotation Zrotation
          JOINT mixamorig:RightForeArm
          {
            OFFSET 7.064691 11.192793 -19.148022
            CHANNELS 3 Xrotation Yrotation Zrotation
            JOINT mixamorig:RightHand
            {
              OFFSET 3.786626 5.224959 -4.202100
              CHANNELS 3 Xrotation Yrotation Zrotation
              End Site
              {
                OFFSET 1.135988 1.567488 -1.260630
              }
            }
          }
        }
      }
    }
  }
  JOINT mixamorig:LeftUpLeg
  {
    OFFSET 9.460444 -0.159481 1.370640
    CHANNELS 3 Xrotation Yrotation Zrotation
    JOINT mixamorig:LeftLeg
    {
      OFFSET 11.476000 -40.598035 -6.922701
      CHANNELS 3 Xrotation Yrotation Zrotation
      JOINT mixamorig:LeftFoot
      {
        OFFSET 10.790807 -36.194235 11.674022
        CHANNELS 3 Xrotation Yrotation Zrotation
        JOINT mixamorig:LeftToeBase
        {
          OFFSET -0.217554 -6.343681 -6.642804
          CHANNELS 3 Xrotation Yrotation Zrotation
          End Site
          {
            OFFSET -0.065266 -1.903104 -1.992841
          }
        }
      }
    }
  }
  JOINT mixamorig:RightUpLeg
  {
    OFFSET -9.460444 0.159481 -1.370640
    CHANNELS 3 Xrotation Yrotation Zrotation
    JOINT mixamorig:RightLeg
    {
      OFFSET -1.472079 -34.936613 11.400775
      CHANNELS 3 Xrotation Yrotation Zrotation
      JOINT mixamorig:RightFoot
      {
        OFFSET -9.570470 -38.467240 26.014859
        CHANNELS 3 Xrotation Yrotation Zrotation
        JOINT mixamorig:RightToeBase
        {
          OFFSET -7.756088 -3.724676 -6.009160
          CHANNELS 3 Xrotation Yrotation Zrotation
          End Site
          {
            OFFSET -2.326826 -1.117403 -1.802748
          }
        }
      }
    }
  }
}
MOTION
Frames: 18
Frame Time: 0.083333
0.094793 0.150699 0.173224 0.147747 0.203555 3.459244 0.000000 0.000000 0.000000 -2.961054 11.221354 -2.847038 -3.840265 -5.614381 5.732872 -4.328031 -5.220894 6.098716 4.345622 -13.349761 4.230556 0.099117 6.776092 -1.279242 0.346057 -2.941481 -0.048251 0.000000 0.000000 0.000000 6.821318 -10.977055 0.347063 -5.358816 0.913184 0.199294 2.396542 -0.858426 0.861948 0.000000 0.000000 0.000000 -4.348373 -0.280813 -9.741371 -5.360471 -4.955995 2.639264 -5.243766 7.414755 0.813270 0.000000 0.000000 0.000000 13.860080 -0.708310 1.228576 -10.178360 6.231562 5.570538 -6.155607 -8.012558 -7.129452 0.000000 0.000000 0.000000
0.090749 0.153379 0.182665 -0.060777 0.299539 4.611834 0.000000 0.000000 0.000000 -2.853022 13.368145 -3.789732 -3.812000 -5.924066 5.601049 -4.312413 -5.542358 5.981085 4.203191 -16.758520 6.461907 -1.823012 9.586928 -1.244061 1.848503 -3.987764 1.105053 0.000000 0.000000 0.000000 7.863586 -12.016282 -1.292102 -6.587515 -1.602029 1.016152 2.695385 -0.379122 0.435473 0.000000 0.000000 0.000000 -4.330969 -0.361759 -10.938766 -5.649524 -4.541064 3.930795 -6.037794 9.369906 -3.362063 0.000000 0.000000 0.000000 13.771114 -1.085895 -0.010754 -9.043034 5.979705 5.990972 -6.907585 -7.108777 -7.814812 0.000000 0.000000 0.000000
0.086094 0.157046 0.196323 -1.032348 0.505238 6.211874 0.000000 0.000000 0.000000 -2.711968 16.368750 -4.895405 -3.554609 -6.247398 5.416781 -4.067001 -5.901938 5.786892 4.111340 -21.629056 9.562998 -4.874769 14.062883 -0.813581 3.675011 -6.289838 2.629750 0.000000 0.000000 0.000000 8.833085 -14.437447 -2.430120 -7.110469 -1.406705 2.341144 3.285316 -1.672156 -0.420979 0.000000 0.000000 0.000000 -2.699935 -0.372766 -12.803388 -6.490006 -3.614485 7.177960 -6.552203 13.094958 -12.844580 0.000000 0.000000 0.000000 14.398175 -1.771142 -1.718339 -7.047224 5.351795 6.512801 -8.758902 -5.137873 -8.303666 0.000000 0.000000 0.000000
0.082358 0.157967 0.211366 -1.643945 0.693002 7.839734 0.000000 0.000000 0.000000 -2.660780 17.954179 -6.147390 -3.581381 -6.167913 5.353082 -4.079933 -5.824788 5.722180 2.380893 -25.043552 12.866290 -10.459992 19.851540 0.957674 6.882938 -9.505467 5.262388 0.000000 0.000000 0.000000 9.048183 -16.019630 -2.874043 -6.605276 -1.276976 2.593503 3.331378 -1.880487 -0.691422 0.000000 0.000000 0.000000 0.233599 0.015086 -15.094454 -10.421569 -3.075691 12.896215 -9.042528 15.588376 -23.939465 0.000000 0.000000 0.000000 15.976556 -2.746199 -3.673964 -5.978775 4.961295 7.653217 -11.196961 -3.263314 -8.811869 0.000000 0.000000 0.000000
0.078321 0.146132 0.216844 -1.602540 0.799811 9.293650 0.000000 0.000000 0.000000 -2.731601 17.407654 -7.599762 -3.516758 -5.587699 5.645913 -3.999191 -5.231365 5.976960 -2.494054 -25.891679 16.644453 -14.082408 26.357490 1.437332 10.123868 -12.806651 10.661337 0.000000 0.000000 0.000000 8.297688 -14.838688 -4.429265 -5.651276 -2.754566 3.222077 3.909651 -1.815414 -0.930572 0.000000 0.000000 0.000000 5.328833 0.892870 -16.803095 -20.953568 -3.903540 17.870594 -14.128576 13.180085 -27.082087 0.000000 0.000000 0.000000 17.556127 -3.698267 -5.270289 -4.098459 4.217255 8.987387 -13.299044 -2.091225 -11.445960 0.000000 0.000000 0.000000
0.076024 0.119256 0.221583 -1.055354 0.831247 10.895155 0.000000 0.000000 0.000000 -2.817906 16.330696 -9.395696 -3.339488 -5.168464 6.288506 -3.844649 -4.786441 6.577821 -11.856479 -25.352430 20.588222 -8.949841 32.449665 -2.206763 15.067328 -16.957301 15.516759 0.000000 0.000000 0.000000 8.193145 -12.759882 -5.930293 -5.737715 -5.564475 3.497913 4.538312 -1.167353 -1.302380 0.000000 0.000000 0.000000 17.518708 3.006856 -17.337259 -42.487465 -6.344538 17.285313 -25.955250 11.224987 -24.406071 0.000000 0.000000 0.000000 19.275517 -4.714321 -6.967538 -2.150291 3.114293 10.071789 -14.345615 -1.288231 -15.680237 0.000000 0.000000 0.000000
0.077542 0.091655 0.233724 1.013189 0.597763 12.705870 -0.000000 0.000000 0.000000 -2.798450 15.630968 -11.775919 -3.395365 -4.753505 7.048703 -3.917461 -4.310730 7.317448 -18.263153 -24.359560 24.361589 0.105133 37.481869 -8.280647 17.093470 -22.236987 18.973395 0.000000 0.000000 0.000000 8.664696 -10.982753 -6.117052 -7.824446 -7.951260 3.107555 5.264474 -0.993958 -2.004116 0.000000 0.000000 0.000000 35.657602 7.280051 -17.929917 -67.535791 -8.208210 11.176715 -35.993477 12.206536 -21.774989 0.000000 0.000000 0.000000 17.984536 -4.932082 -9.395305 -0.287170 2.152853 10.649027 -13.348576 -1.028350 -19.789612 0.000000 0.000000 0.000000
0.086190 0.080197 0.245871 5.033569 -0.013039 14.420665 -0.000000 0.000000 0.000000 -2.561618 16.358182 -14.540821 -4.024428 -4.063653 7.840881 -4.505948 -3.507017 8.135529 -25.151175 -23.984164 26.408340 5.358517 44.848502 -11.858074 23.475166 -30.042924 25.127461 0.000000 0.000000 0.000000 6.633121 -11.097060 -5.068476 -8.430109 -8.836983 2.066086 5.524999 -0.511964 -1.838747 0.000000 0.000000 0.000000 41.704583 12.244191 -23.397558 -73.624275 -8.832185 11.468383 -36.914264 10.980340 -19.518590 0.000000 0.000000 0.000000 14.396887 -4.244814 -12.466093 0.395552 1.936727 11.706184 -13.250386 -1.053765 -21.046097 0.000000 0.000000 0.000000
0.095025 0.082085 0.247227 6.781066 -0.323592 15.324869 -0.000000 0.000000 0.000000 -2.278285 18.990400 -15.913229 -3.222742 -3.873955 9.906235 -3.803632 -3.347243 10.138532 -23.467029 -26.515552 24.645940 -7.427888 48.523568 -5.207969 34.504469 -31.090999 29.998087 0.000000 0.000000 0.000000 6.829887 -13.776034 -3.529715 -9.458427 -8.188891 1.181423 5.654085 -0.075232 -0.952250 0.000000 0.000000 0.000000 42.739419 15.143389 -27.997642 -70.633808 -12.110360 12.962196 -40.202919 7.071110 -2.863048 0.000000 0.000000 0.000000 13.076309 -4.041035 -14.800533 1.468858 1.776023 13.388709 -14.479097 1.411657 -22.054637 0.000000 0.000000 0.000000
0.099711 0.087660 0.245345 8.303265 -0.613802 15.626402 -0.000000 0.000000 0.000000 -2.064143 20.644396 -16.666548 -1.010151 -3.319686 13.047284 -1.737198 -3.014490 13.084170 -19.808259 -28.430184 22.251718 -32.478919 39.049959 9.269972 38.778476 -21.382507 20.300413 0.000000 0.000000 0.000000 5.526796 -16.468851 -1.272474 -9.394195 -5.492499 -0.134691 4.922050 0.035864 -0.276016 0.000000 0.000000 0.000000 42.072707 14.703329 -27.087906 -68.015441 -12.712605 12.055106 -37.210088 1.488937 3.685391 0.000000 0.000000 0.000000 12.509769 -3.803324 -15.881398 1.914817 1.488640 14.214100 -15.511887 3.358952 -22.709418 0.000000 0.000000 0.000000
0.094530 0.093274 0.243825 7.833456 -0.528083 15.686304 -0.000000 0.000000 0.000000 -2.234775 18.236235 -16.522518 -0.553412 -3.174077 13.428343 -1.288698 -2.964176 13.426241 -19.405108 -26.180402 22.825922 -29.268075 33.987168 6.655652 34.618391 -17.407030 16.105569 0.000000 0.000000 0.000000 4.524090 -15.433561 0.109853 -8.647642 -3.122180 -1.291644 5.135647 -0.575992 -0.103492 0.000000 0.000000 0.000000 42.979605 12.214709 -22.902316 -68.481979 -11.310239 6.938616 -28.106920 -0.203946 -4.678610 0.000000 0.000000 0.000000 13.836575 -4.330684 -16.196257 -0.077615 1.915228 14.610504 -14.480632 3.197531 -23.156094 0.000000 0.000000 0.000000
0.082174 0.106511 0.239940 5.982430 -0.195542 14.700266 -0.000000 0.000000 0.000000 -2.456783 16.870593 -15.059439 -1.514597 -1.836531 12.414699 -1.877670 -1.472286 12.449038 -15.311293 -25.594376 22.611417 -24.025569 30.223454 2.973131 30.816221 -13.807124 13.454334 0.000000 0.000000 0.000000 4.175559 -15.137592 0.541440 -7.593648 -0.992420 -1.569912 6.178497 -1.860765 -0.001637 0.000000 0.000000 0.000000 43.840510 9.470863 -17.240569 -64.477365 -9.698178 3.226283 -19.588641 0.809248 -12.355123 0.000000 0.000000 0.000000 15.799955 -4.941898 -15.356765 -1.912391 2.542580 15.039639 -13.488909 2.359129 -22.848195 0.000000 0.000000 0.000000
0.067735 0.136753 0.234329 2.656478 0.330152 12.915871 0.000000 0.000000 0.000000 -2.726856 15.487512 -12.436435 -1.897629 -1.456544 11.592552 -2.142022 -1.040132 11.628897 -9.045085 -25.512532 23.042108 -16.853722 26.536028 -2.701894 23.692246 -10.203976 8.937234 0.000000 0.000000 0.000000 3.559699 -15.302554 0.856996 -4.861424 1.955452 -1.740455 5.968898 -2.843747 0.202488 0.000000 0.000000 0.000000 38.407540 5.750189 -12.479789 -52.795659 -8.226835 2.216751 -14.730935 5.515427 -16.995256 0.000000 0.000000 0.000000 17.477587 -5.256292 -13.305542 -2.414376 3.278649 15.008858 -13.074461 1.939954 -21.354267 0.000000 0.000000 0.000000
0.059974 0.170522 0.221566 0.093375 0.615975 9.970255 0.000000 0.000000 0.000000 -2.774771 16.222250 -8.861913 -1.064290 -2.415695 10.536124 -1.492864 -2.191549 10.571835 -1.059843 -26.549895 20.560628 -13.740758 19.837659 -5.180416 16.806788 -5.637887 2.621255 0.000000 0.000000 0.000000 3.657638 -16.254505 -0.320487 -3.553973 2.959611 -0.458681 5.152311 -3.346843 -0.041823 0.000000 0.000000 0.000000 22.823173 2.386311 -9.390490 -33.098201 -4.816747 4.394576 -9.928553 7.399234 -16.200985 0.000000 0.000000 0.000000 17.262661 -4.370811 -9.412178 -4.132658 4.589749 13.567064 -11.635024 -0.411997 -17.489594 0.000000 0.000000 0.000000
0.060887 0.187190 0.197689 0.839680 0.355519 6.914315 0.000000 0.000000 0.000000 -2.689534 16.635859 -6.065351 -2.281318 -2.011451 9.064787 -2.572397 -1.651701 9.144406 1.966418 -26.175613 18.425446 -6.012921 18.996961 -7.575237 7.812995 -5.606567 3.500415 0.000000 0.000000 0.000000 2.515595 -15.813604 -1.803288 -5.456681 1.226006 0.082075 4.782854 -2.083293 -0.281847 0.000000 0.000000 0.000000 2.913231 0.322780 -7.150777 -8.290988 -0.862890 4.972950 -3.540452 6.039281 -11.561630 0.000000 0.000000 0.000000 14.827013 -2.512654 -4.899684 -6.060183 5.325108 10.726328 -10.277498 -1.040180 -13.697083 0.000000 0.000000 0.000000
0.067686 0.182994 0.175027 2.568996 0.038344 4.600507 -0.000000 0.000000 0.000000 -2.794559 14.039864 -4.418703 -4.159224 -1.830939 8.050407 -4.369015 -1.236028 8.202321 2.552792 -22.633621 16.982962 1.021688 17.247466 -10.237096 -1.515736 -5.276829 5.098242 0.000000 0.000000 0.000000 0.905482 -12.096602 -3.227195 -8.330058 -1.420426 0.020943 5.080206 -0.577670 -0.583617 0.000000 0.000000 0.000000 -4.170557 -0.277872 -3.768086 -3.260261 -0.966464 -1.150997 -4.355698 0.499291 1.960007 0.000000 0.000000 0.000000 12.367624 -1.046895 -1.312178 -8.745227 5.696992 7.614689 -7.384308 -0.562896 -11.796246 0.000000 0.000000 0.000000
0.077537 0.170954 0.165597 1.796004 0.001294 2.185404 -0.000000 0.000000 0.000000 -2.978529 10.762186 -1.931547 -3.930768 -2.080844 7.515248 -4.160163 -1.553156 7.670949 1.675749 -18.203616 14.524255 2.988721 12.582215 -11.195147 -2.949510 -2.888095 6.200683 0.000000 0.000000 0.000000 2.124273 -7.764287 -4.991954 -12.368464 -4.200347 -0.064539 6.445830 -0.040466 -1.522120 0.000000 0.000000 0.000000 -4.143075 -0.577873 -1.610267 -2.282521 -2.787600 -6.080634 -4.289526 -12.688080 25.371217 0.000000 0.000000 0.000000 11.979311 -0.367818 1.213864 -9.307832 5.551989 6.296977 -4.506447 -0.482370 -12.200522 0.000000 0.000000 0.000000
0.092690 0.152802 0.162176 1.287676 -0.107378 -0.507725 -0.000000 0.000000 0.000000 -3.128097 8.009018 0.720939 -3.654179 -2.671797 6.528410 -3.912782 -2.245348 6.698184 1.776082 -14.050158 11.757774 3.486257 8.780547 -10.677200 -3.941690 -1.826673 5.206575 0.000000 0.000000 0.000000 2.264612 -3.436256 -7.906642 -15.885902 -7.768569 0.314108 8.583234 0.635852 -2.196813 0.000000 0.000000 0.000000 -3.634520 -0.545241 0.483179 -4.481884 -5.130457 -9.027469 -7.504428 -21.045168 44.071476 0.000000 0.000000 0.000000 11.648696 0.242318 3.183701 -10.079720 4.784239 5.008305 -2.081611 -1.897378 -10.222674 0.000000 0.000000 0.000000
